<?xml version="1.0" encoding="utf-8"?>
<!-- Generator: Adobe Illustrator 22.1.0, SVG Export Plug-In . SVG Version: 6.00 Build 0)  -->
<svg version="1.1" id="Layer_1" xmlns="http://www.w3.org/2000/svg" xmlns:xlink="http://www.w3.org/1999/xlink" x="0px" y="0px"
	 viewBox="0 0 164.7 22.1" style="enable-background:new 0 0 164.7 22.1;" xml:space="preserve">
<style type="text/css">
	.st0{fill:#FFFFFF;}
	.st1{fill:#081D3F;}
</style>
<rect x="-0.1" class="st0" width="164.8" height="22.1"/>
<title>logo</title>
<g id="Layer_2_1_">
	<g id="Layer_1-2">
		<rect x="0.8" y="0.9" class="st1" width="163.1" height="20.3"/>
		<path class="st0" d="M12.1,8.1H9.8v6.7H8.8V8.1H6.5V7.3h5.5V8.1z"/>
		<path class="st0" d="M15.8,14.9c-0.4,0-0.7-0.1-1.1-0.2c-0.3-0.1-0.6-0.3-0.8-0.6c-0.2-0.2-0.4-0.5-0.5-0.9
			c-0.1-0.3-0.2-0.7-0.2-1.1V12c0-0.4,0.1-0.8,0.2-1.2c0.1-0.3,0.3-0.6,0.6-0.9c0.2-0.3,0.5-0.5,0.9-0.6c0.3-0.1,0.6-0.2,0.9-0.2
			c0.3,0,0.7,0.1,1,0.2c0.3,0.1,0.6,0.3,0.8,0.6c0.2,0.3,0.4,0.6,0.4,0.9c0.1,0.3,0.2,0.7,0.1,1.1v0.4h-4c0,0.2,0.1,0.5,0.1,0.7
			c0.1,0.2,0.2,0.4,0.4,0.6c0.2,0.2,0.3,0.3,0.6,0.4c0.2,0.1,0.5,0.1,0.7,0.1c0.6,0,1.2-0.3,1.6-0.8l0.6,0.5
			c-0.1,0.1-0.2,0.3-0.3,0.4c-0.1,0.1-0.3,0.2-0.5,0.3c-0.2,0.1-0.4,0.2-0.6,0.2C16.3,14.9,16,14.9,15.8,14.9z M15.7,9.9
			c-0.2,0-0.4,0-0.6,0.1c-0.2,0.1-0.3,0.2-0.5,0.3c-0.1,0.1-0.3,0.3-0.4,0.5c-0.1,0.2-0.2,0.4-0.2,0.7h3v-0.1c0-0.2,0-0.4-0.1-0.6
			c0-0.2-0.1-0.4-0.2-0.5c-0.1-0.1-0.3-0.3-0.4-0.4C16.1,9.9,15.9,9.9,15.7,9.9z"/>
		<path class="st0" d="M23.3,14.8c0-0.1-0.1-0.2-0.1-0.3c0-0.1,0-0.2,0-0.3c-0.1,0.1-0.2,0.2-0.3,0.3c-0.1,0.1-0.3,0.2-0.4,0.2
			c-0.1,0.1-0.3,0.1-0.5,0.1c-0.2,0-0.3,0.1-0.5,0.1c-0.3,0-0.5,0-0.8-0.1c-0.2-0.1-0.4-0.2-0.6-0.4c-0.2-0.1-0.3-0.3-0.4-0.5
			c-0.1-0.2-0.1-0.4-0.1-0.6c0-0.3,0.1-0.6,0.2-0.8c0.1-0.2,0.3-0.4,0.5-0.6c0.2-0.2,0.5-0.3,0.8-0.3c0.3-0.1,0.7-0.1,1-0.1h1v-0.5
			c0-0.2,0-0.3-0.1-0.4c-0.1-0.1-0.2-0.2-0.3-0.3c-0.1-0.1-0.2-0.2-0.4-0.2c-0.2,0-0.4,0-0.6,0c-0.2,0-0.3,0-0.5,0.1
			c-0.1,0-0.3,0.1-0.4,0.2c-0.1,0.1-0.2,0.2-0.2,0.3c-0.1,0.1-0.1,0.2-0.1,0.3h-1c0-0.2,0.1-0.4,0.1-0.6c0.1-0.2,0.3-0.4,0.4-0.5
			c0.2-0.2,0.4-0.3,0.7-0.4c0.3-0.1,0.6-0.1,0.9-0.1c0.3,0,0.6,0,0.9,0.1c0.3,0.1,0.5,0.2,0.7,0.4c0.2,0.2,0.4,0.4,0.5,0.6
			c0.1,0.3,0.2,0.5,0.2,0.8v2.6c0,0.2,0,0.4,0,0.6c0,0.2,0.1,0.4,0.1,0.5v0.1H23.3z M21.6,14.1c0.2,0,0.4,0,0.5-0.1
			c0.2,0,0.3-0.1,0.4-0.2c0.1-0.1,0.2-0.2,0.3-0.3c0.1-0.1,0.2-0.2,0.2-0.3v-1.1h-0.9c-0.4,0-0.9,0.1-1.3,0.2
			c-0.3,0.1-0.5,0.4-0.5,0.8c0,0.1,0,0.3,0.1,0.4c0,0.1,0.1,0.2,0.2,0.3c0.1,0.1,0.2,0.2,0.4,0.2C21.3,14,21.4,14.1,21.6,14.1z"/>
		<path class="st0" d="M26.4,9.2v0.5c0.1-0.2,0.3-0.3,0.5-0.4c0.2-0.1,0.4-0.2,0.7-0.2c0.4,0,0.8,0.2,1,0.6c0.1-0.2,0.3-0.3,0.4-0.4
			c0.2-0.1,0.4-0.2,0.6-0.2c0.4,0,0.7,0.1,0.9,0.4c0.2,0.3,0.4,0.7,0.3,1.1v4.2H30v-4.2c0-0.5-0.2-0.7-0.6-0.7c-0.1,0-0.2,0-0.3,0
			c-0.1,0-0.1,0.1-0.2,0.1c-0.1,0.1-0.1,0.1-0.1,0.2c0,0.1-0.1,0.1-0.1,0.2v4.3h-0.9v-4.1c0-0.2,0-0.4-0.1-0.5
			c-0.1-0.1-0.3-0.2-0.5-0.2c-0.2,0-0.3,0-0.5,0.1c-0.1,0.1-0.2,0.2-0.2,0.3v4.4h-0.9V9.2H26.4z"/>
		<path class="st0" d="M43.6,8.1h-2.3v6.7h-0.9V8.1h-2.3V7.3h5.5V8.1z"/>
		<path class="st0" d="M48.5,9.1h0.3h0.3h0.2l0.2,0.1l-0.1,0.9L48.8,10c-0.2,0-0.3,0-0.5,0c-0.8-0.1-1.5,0.4-1.7,1.1v3.6h-1V9.2h0.9
			l0,0.9c0.2-0.3,0.5-0.5,0.8-0.7C47.7,9.2,48.1,9.1,48.5,9.1z"/>
		<path class="st0" d="M53.7,14.9c-0.4,0-0.7-0.1-1.1-0.2c-0.3-0.1-0.6-0.3-0.8-0.6c-0.2-0.2-0.4-0.5-0.5-0.9
			C51.1,13,51,12.6,51,12.2V12c0-0.4,0.1-0.8,0.2-1.2c0.1-0.3,0.3-0.6,0.6-0.9c0.2-0.2,0.5-0.4,0.8-0.6c0.3-0.1,0.6-0.2,0.9-0.2
			c0.3,0,0.7,0.1,1,0.2c0.3,0.1,0.6,0.3,0.8,0.6c0.2,0.3,0.4,0.6,0.5,0.9c0.1,0.3,0.1,0.7,0.1,1.1v0.4h-4c0,0.2,0.1,0.5,0.2,0.7
			c0.1,0.2,0.2,0.4,0.4,0.6c0.2,0.2,0.3,0.3,0.5,0.4c0.2,0.1,0.5,0.1,0.7,0.1c0.6,0,1.2-0.3,1.6-0.8l0.6,0.5
			c-0.1,0.1-0.2,0.3-0.3,0.4c-0.1,0.1-0.3,0.3-0.5,0.3c-0.2,0.1-0.4,0.2-0.6,0.2C54.1,14.9,53.9,14.9,53.7,14.9z M53.5,9.9
			c-0.2,0-0.4,0-0.5,0.1c-0.2,0.1-0.3,0.2-0.5,0.3c-0.1,0.1-0.3,0.3-0.3,0.5c-0.1,0.2-0.2,0.4-0.2,0.7h3v-0.1c0-0.2,0-0.4-0.1-0.6
			c-0.1-0.2-0.1-0.3-0.3-0.5c-0.1-0.1-0.3-0.3-0.4-0.4C54,10,53.7,9.9,53.5,9.9z"/>
		<path class="st0" d="M60,14.9c-0.4,0-0.7-0.1-1.1-0.2c-0.3-0.1-0.6-0.3-0.8-0.6c-0.2-0.2-0.4-0.5-0.5-0.9
			c-0.1-0.3-0.2-0.7-0.2-1.1V12c0-0.4,0.1-0.8,0.2-1.2c0.1-0.3,0.3-0.6,0.6-0.9c0.2-0.2,0.5-0.4,0.8-0.6c0.3-0.1,0.6-0.2,0.9-0.2
			c0.3,0,0.7,0.1,1,0.2c0.3,0.1,0.5,0.3,0.7,0.6c0.2,0.3,0.4,0.6,0.5,0.9c0.1,0.3,0.1,0.7,0.1,1.1v0.4h-4c0,0.2,0.1,0.5,0.2,0.7
			c0.1,0.2,0.2,0.4,0.4,0.6c0.2,0.2,0.3,0.3,0.5,0.4c0.2,0.1,0.5,0.1,0.7,0.1c0.6,0,1.2-0.3,1.6-0.8l0.6,0.5
			c-0.1,0.1-0.2,0.3-0.3,0.4c-0.1,0.1-0.3,0.2-0.5,0.3c-0.2,0.1-0.4,0.2-0.6,0.2C60.4,14.9,60.2,14.9,60,14.9z M59.8,9.9
			c-0.2,0-0.4,0-0.5,0.1c-0.2,0.1-0.3,0.2-0.5,0.3c-0.1,0.1-0.3,0.3-0.3,0.5c-0.1,0.2-0.2,0.4-0.2,0.7h3v-0.1c0-0.2,0-0.4-0.1-0.6
			c-0.1-0.2-0.1-0.3-0.3-0.5c-0.1-0.1-0.3-0.3-0.4-0.4C60.3,10,60.1,9.9,59.8,9.9z"/>
		<rect x="69.8" y="2.8" class="st0" width="91.7" height="16.5"/>
		<path class="st1" d="M76.4,7.3h4.5v0.8h-1.8v5.8h1.8v0.8h-4.5v-0.8h1.8V8.1h-1.8V7.3z"/>
		<path class="st1" d="M83.6,9.2l0.1,0.8c0.2-0.3,0.4-0.5,0.8-0.7c0.3-0.2,0.7-0.3,1-0.2c0.3,0,0.5,0,0.8,0.1
			c0.2,0.1,0.4,0.2,0.6,0.4c0.2,0.2,0.3,0.4,0.4,0.7c0.1,0.3,0.2,0.7,0.1,1v3.5h-1v-3.5c0-0.2,0-0.4-0.1-0.6c0-0.2-0.1-0.3-0.2-0.4
			c-0.1-0.1-0.2-0.2-0.4-0.2c-0.1,0-0.3-0.1-0.4-0.1c-0.3,0-0.6,0.1-0.8,0.2c-0.2,0.2-0.4,0.4-0.6,0.6v4h-0.9V9.2H83.6z"/>
		<path class="st1" d="M91.3,7.9v1.3h2.1v0.7h-2.1v3c0,0.2,0,0.4,0.1,0.5c0,0.1,0.1,0.2,0.2,0.3c0.1,0.1,0.2,0.2,0.3,0.2
			c0.1,0,0.3,0.1,0.4,0.1h0.3L93,14l0.3-0.1h0.2l0.1,0.7c-0.1,0.1-0.2,0.1-0.3,0.1L93,14.8c-0.1,0-0.3,0.1-0.4,0.1h-0.4
			c-0.2,0-0.5,0-0.7-0.1c-0.2-0.1-0.4-0.2-0.6-0.3c-0.2-0.2-0.3-0.4-0.4-0.6c-0.1-0.3-0.1-0.6-0.1-0.9v-3h-1.5V9.2h1.5V7.9H91.3z"/>
		<path class="st1" d="M97.8,14.9c-0.4,0-0.7-0.1-1.1-0.2c-0.3-0.1-0.6-0.3-0.8-0.6c-0.2-0.2-0.4-0.5-0.6-0.9
			c-0.1-0.3-0.2-0.7-0.2-1.1V12c0-0.4,0.1-0.8,0.2-1.2c0.1-0.3,0.3-0.6,0.6-0.9c0.2-0.3,0.5-0.5,0.8-0.6c0.3-0.1,0.6-0.2,0.9-0.2
			c0.3,0,0.7,0.1,1,0.2c0.3,0.1,0.6,0.3,0.8,0.6c0.2,0.3,0.4,0.6,0.4,0.9c0.1,0.3,0.2,0.7,0.2,1.1v0.4h-4c0,0.2,0.1,0.5,0.2,0.7
			c0.1,0.2,0.2,0.4,0.3,0.6c0.2,0.2,0.3,0.3,0.6,0.4c0.2,0.1,0.5,0.1,0.7,0.1c0.3,0,0.7,0,1-0.2c0.3-0.1,0.5-0.3,0.7-0.6l0.6,0.5
			c-0.1,0.1-0.2,0.3-0.3,0.4c-0.1,0.1-0.3,0.2-0.5,0.3c-0.2,0.1-0.4,0.2-0.6,0.2C98.3,14.9,98.1,14.9,97.8,14.9z M97.7,9.9
			c-0.2,0-0.4,0-0.5,0.1c-0.2,0.1-0.3,0.2-0.5,0.3c-0.1,0.1-0.3,0.3-0.3,0.5c-0.1,0.2-0.2,0.4-0.2,0.7h3v-0.1c0-0.2,0-0.4-0.1-0.6
			c-0.1-0.2-0.2-0.4-0.3-0.5C98.5,10.1,98.1,9.9,97.7,9.9z"/>
		<path class="st1" d="M105.3,9.1h0.3h0.3h0.2l0.2,0.1l-0.1,0.9l-0.5-0.1c-0.2,0-0.3,0-0.5,0c-0.4,0-0.8,0.1-1.1,0.3
			c-0.3,0.2-0.5,0.5-0.6,0.9v3.6h-1V9.2h0.9v0.9c0.2-0.3,0.5-0.5,0.8-0.7C104.5,9.2,104.9,9.1,105.3,9.1z"/>
		<path class="st1" d="M108.8,9.2l0.1,0.8c0.2-0.3,0.5-0.5,0.8-0.7c0.3-0.2,0.7-0.3,1-0.2c0.3,0,0.5,0,0.8,0.1
			c0.2,0.1,0.4,0.2,0.6,0.4c0.2,0.2,0.3,0.4,0.4,0.7c0.1,0.3,0.2,0.7,0.1,1v3.5h-1v-3.5c0-0.2,0-0.4-0.1-0.6c0-0.2-0.1-0.3-0.2-0.4
			c-0.1-0.1-0.2-0.2-0.4-0.2c-0.2,0-0.3-0.1-0.5-0.1c-0.3,0-0.6,0.1-0.8,0.2c-0.2,0.2-0.4,0.4-0.6,0.6v4h-1V9.2H108.8z"/>
		<path class="st1" d="M118,14.8c0-0.1-0.1-0.2-0.1-0.3c0-0.1,0-0.2,0-0.3c-0.1,0.1-0.2,0.2-0.3,0.3c-0.1,0.1-0.3,0.2-0.4,0.2
			c-0.1,0.1-0.3,0.1-0.5,0.1c-0.2,0-0.3,0.1-0.5,0.1c-0.3,0-0.5,0-0.8-0.1c-0.2-0.1-0.4-0.2-0.6-0.4c-0.2-0.1-0.3-0.3-0.4-0.5
			c-0.1-0.2-0.1-0.4-0.1-0.6c0-0.5,0.2-1.1,0.7-1.4c0.2-0.2,0.5-0.3,0.8-0.3c0.3-0.1,0.7-0.1,1.1-0.1h1v-0.5c0-0.2,0-0.3-0.1-0.4
			c-0.1-0.1-0.1-0.2-0.3-0.3c-0.1-0.1-0.3-0.2-0.4-0.2c-0.2-0.1-0.4-0.1-0.6-0.1c-0.2,0-0.3,0-0.5,0.1c-0.1,0-0.3,0.1-0.4,0.2
			c-0.1,0.1-0.2,0.2-0.2,0.3c-0.1,0.1-0.1,0.2-0.1,0.3h-1c0-0.2,0.1-0.4,0.2-0.6c0.1-0.2,0.3-0.4,0.4-0.5c0.2-0.2,0.4-0.3,0.7-0.4
			c0.3-0.1,0.6-0.1,0.9-0.1c0.3,0,0.6,0,0.9,0.1c0.3,0.1,0.5,0.2,0.7,0.4c0.2,0.2,0.4,0.4,0.5,0.6c0.1,0.3,0.2,0.5,0.2,0.8v2.6
			c0,0.2,0,0.4,0.1,0.6c0,0.2,0.1,0.4,0.1,0.5v0.1L118,14.8z M116.3,14.1c0.2,0,0.4,0,0.5-0.1c0.2,0,0.3-0.1,0.4-0.2
			c0.1-0.1,0.2-0.2,0.3-0.3c0.1-0.1,0.2-0.2,0.2-0.3v-1.1h-0.9c-0.4,0-0.9,0.1-1.3,0.2c-0.3,0.1-0.5,0.4-0.5,0.8
			c0,0.1,0,0.3,0.1,0.4c0,0.1,0.1,0.2,0.2,0.3c0.1,0.1,0.2,0.2,0.3,0.2C115.9,14,116.1,14.1,116.3,14.1z"/>
		<path class="st1" d="M122.9,7.9v1.3h2.1v0.7h-2.1v3c0,0.2,0,0.4,0.1,0.5c0,0.1,0.1,0.2,0.2,0.3c0.1,0.1,0.2,0.2,0.3,0.2
			c0.1,0,0.3,0.1,0.4,0.1h0.3l0.3-0.1l0.3-0.1h0.2l0.1,0.7c-0.1,0.1-0.2,0.1-0.3,0.1l-0.4,0.1c-0.1,0-0.3,0.1-0.4,0.1h-0.4
			c-0.2,0-0.5,0-0.7-0.1c-0.2-0.1-0.4-0.2-0.6-0.3c-0.2-0.2-0.3-0.4-0.4-0.6c-0.1-0.3-0.1-0.6-0.1-0.9v-3h-1.5V9.2h1.4V7.9H122.9z"
			/>
		<path class="st1" d="M127.1,9.2h2.8v4.7h1.8v0.8h-4.7v-0.8h1.9v-3.9h-1.9L127.1,9.2z M128.8,7.8c0-0.1,0-0.3,0.1-0.4
			c0.1-0.1,0.3-0.2,0.4-0.2c0.2,0,0.3,0,0.4,0.2c0.1,0.1,0.2,0.3,0.1,0.4c0,0.1-0.1,0.3-0.1,0.4c-0.1,0.1-0.3,0.2-0.4,0.1
			c-0.2,0-0.3,0-0.4-0.1C128.9,8,128.8,7.9,128.8,7.8z"/>
		<path class="st1" d="M133,11.9c0-0.4,0.1-0.8,0.2-1.1c0.1-0.3,0.3-0.6,0.5-0.9c0.2-0.3,0.5-0.5,0.8-0.6c0.3-0.2,0.7-0.2,1.1-0.2
			c0.4,0,0.7,0.1,1.1,0.2c0.3,0.1,0.6,0.3,0.8,0.6c0.2,0.3,0.4,0.6,0.5,0.9c0.1,0.4,0.2,0.7,0.2,1.1V12c0,0.4-0.1,0.8-0.2,1.1
			c-0.1,0.3-0.3,0.6-0.5,0.9c-0.2,0.3-0.5,0.5-0.8,0.6c-0.3,0.2-0.7,0.2-1.1,0.2c-0.4,0-0.7-0.1-1.1-0.2c-0.3-0.1-0.6-0.3-0.8-0.6
			c-0.2-0.3-0.4-0.6-0.5-0.9c-0.1-0.4-0.2-0.7-0.2-1.1V11.9z M133.9,12c0,0.3,0,0.5,0.1,0.8c0.1,0.2,0.2,0.5,0.3,0.7
			c0.1,0.2,0.3,0.3,0.5,0.4c0.4,0.2,0.9,0.2,1.4,0c0.2-0.1,0.4-0.3,0.5-0.4c0.1-0.2,0.2-0.4,0.3-0.7c0.1-0.3,0.1-0.5,0.1-0.8v-0.1
			c0-0.3,0-0.5-0.1-0.8c-0.1-0.2-0.2-0.5-0.3-0.7c-0.1-0.2-0.3-0.3-0.5-0.4c-0.4-0.2-0.9-0.2-1.4,0c-0.2,0.1-0.4,0.3-0.5,0.4
			c-0.1,0.2-0.2,0.4-0.3,0.7c-0.1,0.3-0.1,0.5-0.1,0.8L133.9,12z"/>
		<path class="st1" d="M140.4,9.2l0.1,0.8c0.2-0.3,0.4-0.5,0.7-0.7c0.3-0.2,0.7-0.3,1-0.2c0.3,0,0.5,0,0.8,0.1
			c0.2,0.1,0.4,0.2,0.6,0.4c0.2,0.2,0.3,0.4,0.4,0.7c0.1,0.3,0.1,0.7,0.1,1v3.5h-1v-3.5c0-0.2,0-0.4-0.1-0.6c0-0.2-0.1-0.3-0.2-0.4
			c-0.1-0.1-0.2-0.2-0.4-0.2c-0.2,0-0.4-0.1-0.5-0.1c-0.3,0-0.6,0.1-0.8,0.2c-0.2,0.2-0.4,0.4-0.6,0.6v4h-0.9V9.2H140.4z"/>
		<path class="st1" d="M149.5,14.8c0-0.1-0.1-0.2-0.1-0.3c0-0.1,0-0.2,0-0.3c-0.1,0.1-0.2,0.2-0.3,0.3c-0.1,0.1-0.3,0.2-0.4,0.2
			c-0.1,0.1-0.3,0.1-0.4,0.1c-0.2,0-0.3,0.1-0.5,0.1c-0.3,0-0.5,0-0.8-0.1c-0.2-0.1-0.4-0.2-0.6-0.4c-0.2-0.1-0.3-0.3-0.4-0.5
			c-0.1-0.2-0.1-0.4-0.1-0.6c0-0.3,0.1-0.6,0.2-0.8c0.1-0.2,0.3-0.4,0.5-0.6c0.2-0.2,0.5-0.3,0.8-0.3c0.3-0.1,0.7-0.1,1-0.1h1v-0.5
			c0-0.2,0-0.3-0.1-0.4c-0.1-0.1-0.2-0.2-0.3-0.3c-0.1-0.1-0.3-0.2-0.4-0.2c-0.2-0.1-0.4-0.1-0.6-0.1c-0.2,0-0.3,0-0.5,0.1
			c-0.1,0-0.3,0.1-0.4,0.2c-0.1,0.1-0.2,0.2-0.2,0.3c-0.1,0.1-0.1,0.2-0.1,0.3h-1c0-0.2,0.1-0.4,0.2-0.6c0.1-0.2,0.3-0.4,0.4-0.5
			c0.2-0.2,0.4-0.3,0.7-0.4c0.3-0.1,0.6-0.1,0.9-0.1c0.3,0,0.6,0,0.9,0.1c0.3,0.1,0.5,0.2,0.7,0.4c0.2,0.2,0.4,0.4,0.5,0.6
			c0.1,0.3,0.2,0.5,0.2,0.8v2.6c0,0.2,0,0.4,0.1,0.6c0,0.2,0.1,0.4,0.1,0.5v0.1L149.5,14.8z M147.8,14.1c0.2,0,0.4,0,0.5-0.1
			c0.2,0,0.3-0.1,0.4-0.2c0.1-0.1,0.2-0.2,0.3-0.3c0.1-0.1,0.2-0.2,0.2-0.3v-1.1h-0.9c-0.4,0-0.9,0.1-1.3,0.2
			c-0.3,0.1-0.5,0.4-0.5,0.8c0,0.1,0,0.3,0.1,0.4c0,0.1,0.1,0.2,0.2,0.3c0.1,0.1,0.2,0.2,0.4,0.2C147.5,14,147.7,14.1,147.8,14.1z"
			/>
		<path class="st1" d="M152.3,6.9h2.8v7h1.8v0.8h-4.7v-0.8h1.9V7.7h-1.9V6.9z"/>
	</g>
</g>
</svg>
