<svg xmlns="http://www.w3.org/2000/svg" viewBox="0 0 163.08 20.26"><defs><style>.cls-1{fill:#081d3f;}.cls-2{fill:#fff;}</style></defs><title>logo</title><g id="Layer_2" data-name="Layer 2"><g id="Layer_1-2" data-name="Layer 1"><rect class="cls-1" width="163.08" height="20.26"/><path class="cls-2" d="M11.3,7.18H9v6.67H8.06V7.18H5.75V6.37H11.3Z"/><path class="cls-2" d="M15,14a2.92,2.92,0,0,1-1.08-.2,2.53,2.53,0,0,1-.84-.56,2.57,2.57,0,0,1-.54-.85,2.92,2.92,0,0,1-.2-1.08v-.21a3.3,3.3,0,0,1,.22-1.21,2.94,2.94,0,0,1,.57-.9A2.55,2.55,0,0,1,14,8.38a2.31,2.31,0,0,1,.93-.19,2.62,2.62,0,0,1,1,.2A2,2,0,0,1,16.7,9a2.55,2.55,0,0,1,.44.87,3.69,3.69,0,0,1,.15,1.07v.43h-4a2.09,2.09,0,0,0,.14.71,2,2,0,0,0,.36.59,1.83,1.83,0,0,0,.55.39,1.62,1.62,0,0,0,.7.14,1.85,1.85,0,0,0,1.56-.75l.58.46a2.07,2.07,0,0,1-.34.4,2.43,2.43,0,0,1-.48.34,2.67,2.67,0,0,1-.62.24A3,3,0,0,1,15,14ZM14.9,9a1.45,1.45,0,0,0-.55.1,1.55,1.55,0,0,0-.46.31,1.86,1.86,0,0,0-.35.5,2.26,2.26,0,0,0-.19.68h3v-.07a2.07,2.07,0,0,0-.11-.55A1.64,1.64,0,0,0,16,9.45a1.51,1.51,0,0,0-.44-.35A1.39,1.39,0,0,0,14.9,9Z"/><path class="cls-2" d="M22.53,13.85a.85.85,0,0,1-.09-.27c0-.11,0-.22-.05-.34a1.69,1.69,0,0,1-.32.27,2.5,2.5,0,0,1-.39.23,2.16,2.16,0,0,1-.45.15,2.24,2.24,0,0,1-.52.06,2.28,2.28,0,0,1-.8-.13,1.61,1.61,0,0,1-.6-.35,1.39,1.39,0,0,1-.39-.51,1.57,1.57,0,0,1-.13-.65A1.73,1.73,0,0,1,19,11.5a1.63,1.63,0,0,1,.51-.57,2.6,2.6,0,0,1,.81-.34,4.23,4.23,0,0,1,1.05-.11h1V10a1.06,1.06,0,0,0-.1-.45A1,1,0,0,0,22,9.25,1.08,1.08,0,0,0,21.61,9,1.87,1.87,0,0,0,21.06,9a2,2,0,0,0-.51.07,1.6,1.6,0,0,0-.37.19.78.78,0,0,0-.24.28.69.69,0,0,0-.09.34h-1a1.33,1.33,0,0,1,.15-.6,1.79,1.79,0,0,1,.44-.52,2.22,2.22,0,0,1,.7-.38,2.65,2.65,0,0,1,.92-.14A3.08,3.08,0,0,1,22,8.3a2.19,2.19,0,0,1,.7.35,1.77,1.77,0,0,1,.47.58,1.94,1.94,0,0,1,.17.82v2.58a3,3,0,0,0,.05.59,2.35,2.35,0,0,0,.14.54v.09Zm-1.68-.73a1.72,1.72,0,0,0,.52-.07,2,2,0,0,0,.44-.19,1.84,1.84,0,0,0,.34-.27,1.31,1.31,0,0,0,.23-.31V11.15h-.89a2.71,2.71,0,0,0-1.29.25.81.81,0,0,0-.46.77,1.12,1.12,0,0,0,.06.38.81.81,0,0,0,.21.3,1,1,0,0,0,.35.2A1.49,1.49,0,0,0,20.85,13.12Z"/><path class="cls-2" d="M25.63,8.29l0,.52a1.29,1.29,0,0,1,.45-.45,1.24,1.24,0,0,1,.66-.17,1,1,0,0,1,1,.59,1.29,1.29,0,0,1,.44-.43,1.33,1.33,0,0,1,.65-.16,1.18,1.18,0,0,1,.94.37,1.69,1.69,0,0,1,.33,1.14v4.15h-.9V9.69c0-.47-.22-.7-.64-.7a.9.9,0,0,0-.3,0,.56.56,0,0,0-.2.12.59.59,0,0,0-.13.19.79.79,0,0,0-.06.22v4.28H27V9.68a.84.84,0,0,0-.14-.51A.59.59,0,0,0,26.38,9a.76.76,0,0,0-.46.12.67.67,0,0,0-.24.31v4.43h-.91V8.29Z"/><path class="cls-2" d="M42.86,7.18H40.55v6.67h-.93V7.18H37.31V6.37h5.55Z"/><path class="cls-2" d="M47.77,8.19h.28l.27,0,.24,0,.19.06-.13.93-.53-.09a4.28,4.28,0,0,0-.52,0,1.63,1.63,0,0,0-1.69,1.15v3.57h-1V8.29h.91l.05.88a2.54,2.54,0,0,1,.81-.72A2.16,2.16,0,0,1,47.77,8.19Z"/><path class="cls-2" d="M52.9,14a2.92,2.92,0,0,1-1.08-.2,2.34,2.34,0,0,1-.84-.56,2.57,2.57,0,0,1-.54-.85,2.92,2.92,0,0,1-.2-1.08v-.21a3.11,3.11,0,0,1,.22-1.21,2.77,2.77,0,0,1,.57-.9,2.62,2.62,0,0,1,.81-.56,2.35,2.35,0,0,1,.93-.19,2.62,2.62,0,0,1,1,.2,2,2,0,0,1,.75.58,2.4,2.4,0,0,1,.45.87,4.07,4.07,0,0,1,.14,1.07v.43h-4a2.09,2.09,0,0,0,.15.71,2,2,0,0,0,.36.59,1.78,1.78,0,0,0,.54.39,1.67,1.67,0,0,0,.71.14,1.89,1.89,0,0,0,1.56-.75l.58.46a2.14,2.14,0,0,1-.35.4,2,2,0,0,1-.48.34,2.59,2.59,0,0,1-.61.24A3,3,0,0,1,52.9,14Zm-.13-5a1.4,1.4,0,0,0-.54.1,1.44,1.44,0,0,0-.46.31,1.66,1.66,0,0,0-.35.5,2.59,2.59,0,0,0-.2.68h3v-.07a2.05,2.05,0,0,0-.1-.55,1.47,1.47,0,0,0-.27-.49,1.29,1.29,0,0,0-.44-.35A1.34,1.34,0,0,0,52.77,9Z"/><path class="cls-2" d="M59.21,14a2.92,2.92,0,0,1-1.08-.2,2.53,2.53,0,0,1-.84-.56,2.57,2.57,0,0,1-.54-.85,2.92,2.92,0,0,1-.2-1.08v-.21a3.3,3.3,0,0,1,.22-1.21,2.77,2.77,0,0,1,.57-.9,2.62,2.62,0,0,1,.81-.56,2.39,2.39,0,0,1,.94-.19,2.62,2.62,0,0,1,1,.2,1.94,1.94,0,0,1,.74.58,2.4,2.4,0,0,1,.45.87,3.69,3.69,0,0,1,.14,1.07v.43h-4a2.09,2.09,0,0,0,.15.71,2,2,0,0,0,.36.59,1.71,1.71,0,0,0,.55.39,1.59,1.59,0,0,0,.7.14,1.89,1.89,0,0,0,1.56-.75l.58.46a2.07,2.07,0,0,1-.34.4,2.43,2.43,0,0,1-.48.34,2.86,2.86,0,0,1-.62.24A3,3,0,0,1,59.21,14Zm-.12-5a1.42,1.42,0,0,0-.55.1,1.55,1.55,0,0,0-.46.31,1.86,1.86,0,0,0-.35.5,2.59,2.59,0,0,0-.2.68h3v-.07a2.05,2.05,0,0,0-.1-.55,1.47,1.47,0,0,0-.27-.49,1.35,1.35,0,0,0-.43-.35A1.39,1.39,0,0,0,59.09,9Z"/><rect class="cls-2" x="69.03" y="1.88" width="91.72" height="16.51"/><path class="cls-1" d="M75.67,6.37h4.52V7.2H78.4V13h1.79v.82H75.67V13h1.75V7.2H75.67Z"/><path class="cls-1" d="M82.84,8.29l.06.82a2.09,2.09,0,0,1,.75-.67,1.91,1.91,0,0,1,1-.25,2.53,2.53,0,0,1,.8.12A1.46,1.46,0,0,1,86,8.7a1.76,1.76,0,0,1,.38.66,3,3,0,0,1,.14,1v3.53h-1V10.34a2.25,2.25,0,0,0-.08-.63,1,1,0,0,0-.25-.41.92.92,0,0,0-.39-.24A2.21,2.21,0,0,0,84.35,9a1.48,1.48,0,0,0-.84.24,1.85,1.85,0,0,0-.58.63v4H82V8.29Z"/><path class="cls-1" d="M90.55,6.94V8.29h2.11V9H90.55v3a1.4,1.4,0,0,0,.08.54.8.8,0,0,0,.22.33.75.75,0,0,0,.34.18,1.23,1.23,0,0,0,.39.05h.32l.32-.05.3-.05.22,0,.13.67a1.32,1.32,0,0,1-.29.13l-.36.09a3,3,0,0,1-.43.06l-.44,0a2.17,2.17,0,0,1-.69-.11,1.44,1.44,0,0,1-.56-.33,1.53,1.53,0,0,1-.37-.59,2.5,2.5,0,0,1-.14-.88V9H88.13V8.29h1.46V6.94Z"/><path class="cls-1" d="M97.06,14a2.87,2.87,0,0,1-1.07-.2,2.34,2.34,0,0,1-.84-.56,2.6,2.6,0,0,1-.55-.85,2.92,2.92,0,0,1-.19-1.08v-.21a3.3,3.3,0,0,1,.21-1.21,3,3,0,0,1,.58-.9A2.51,2.51,0,0,1,96,8.38a2.31,2.31,0,0,1,.93-.19,2.62,2.62,0,0,1,1,.2,2,2,0,0,1,.75.58,2.24,2.24,0,0,1,.44.87,3.69,3.69,0,0,1,.15,1.07v.43h-4a2.09,2.09,0,0,0,.15.71,1.74,1.74,0,0,0,.35.59,2,2,0,0,0,.55.39,1.64,1.64,0,0,0,.71.14A1.89,1.89,0,0,0,98,13a2.07,2.07,0,0,0,.66-.55l.58.46a2.57,2.57,0,0,1-.35.4,2.43,2.43,0,0,1-.48.34,2.67,2.67,0,0,1-.62.24A3,3,0,0,1,97.06,14Zm-.12-5a1.4,1.4,0,0,0-.54.1,1.48,1.48,0,0,0-.47.31,1.83,1.83,0,0,0-.34.5,2.26,2.26,0,0,0-.2.68h3v-.07a2.07,2.07,0,0,0-.11-.55A1.44,1.44,0,0,0,98,9.45,1.3,1.3,0,0,0,96.94,9Z"/><path class="cls-1" d="M104.56,8.19h.28l.28,0,.24,0,.18.06-.13.93-.53-.09a4.28,4.28,0,0,0-.52,0,1.81,1.81,0,0,0-1.08.3,1.85,1.85,0,0,0-.61.85v3.57h-1V8.29h.9l0,.88a2.65,2.65,0,0,1,.81-.72A2.16,2.16,0,0,1,104.56,8.19Z"/><path class="cls-1" d="M108.09,8.29l.06.82a2.18,2.18,0,0,1,.75-.67,1.91,1.91,0,0,1,1-.25,2.49,2.49,0,0,1,.8.12,1.46,1.46,0,0,1,.61.39,1.76,1.76,0,0,1,.38.66,2.78,2.78,0,0,1,.14,1v3.53h-1V10.34a2.25,2.25,0,0,0-.08-.63,1,1,0,0,0-.25-.41.92.92,0,0,0-.39-.24A2.21,2.21,0,0,0,109.6,9a1.48,1.48,0,0,0-.84.24,1.85,1.85,0,0,0-.58.63v4h-1V8.29Z"/><path class="cls-1" d="M117.2,13.85a.85.85,0,0,1-.09-.27c0-.11,0-.22,0-.34a2.08,2.08,0,0,1-.32.27,2.5,2.5,0,0,1-.39.23,2.25,2.25,0,0,1-.46.15,2.1,2.1,0,0,1-.51.06,2.28,2.28,0,0,1-.8-.13,1.61,1.61,0,0,1-.6-.35,1.39,1.39,0,0,1-.39-.51,1.58,1.58,0,0,1-.14-.65,1.62,1.62,0,0,1,.7-1.38,2.6,2.6,0,0,1,.81-.34,4.23,4.23,0,0,1,1.05-.11h1V10a1.06,1.06,0,0,0-.09-.45,1,1,0,0,0-.26-.34,1.08,1.08,0,0,0-.41-.22,1.92,1.92,0,0,0-.55-.08,2,2,0,0,0-.51.07,1.42,1.42,0,0,0-.37.19.78.78,0,0,0-.24.28.69.69,0,0,0-.09.34h-1a1.33,1.33,0,0,1,.15-.6,1.65,1.65,0,0,1,.44-.52,2.28,2.28,0,0,1,.69-.38,2.75,2.75,0,0,1,.93-.14,3.08,3.08,0,0,1,.88.11,2.19,2.19,0,0,1,.7.35,1.77,1.77,0,0,1,.47.58,1.94,1.94,0,0,1,.16.82v2.58a3,3,0,0,0,.06.59,2.35,2.35,0,0,0,.14.54v.09Zm-1.68-.73a1.77,1.77,0,0,0,.52-.07,2,2,0,0,0,.44-.19,1.84,1.84,0,0,0,.34-.27,1.26,1.26,0,0,0,.22-.31V11.15h-.88a2.69,2.69,0,0,0-1.29.25.81.81,0,0,0-.47.77,1.12,1.12,0,0,0,.07.38.81.81,0,0,0,.21.3.92.92,0,0,0,.35.2A1.45,1.45,0,0,0,115.52,13.12Z"/><path class="cls-1" d="M122.11,6.94V8.29h2.12V9h-2.12v3a1.62,1.62,0,0,0,.08.54.81.81,0,0,0,.23.33.67.67,0,0,0,.33.18,1.29,1.29,0,0,0,.4.05h.32l.32-.05.29-.05.22,0,.14.67a1.57,1.57,0,0,1-.29.13l-.37.09a2.83,2.83,0,0,1-.42.06l-.45,0a2.17,2.17,0,0,1-.69-.11,1.51,1.51,0,0,1-.56-.33,1.65,1.65,0,0,1-.37-.59,2.5,2.5,0,0,1-.14-.88V9H119.7V8.29h1.45V6.94Z"/><path class="cls-1" d="M126.32,8.29h2.84V13H131v.82h-4.65V13h1.89V9.12h-1.89Zm1.77-1.46a.61.61,0,0,1,.14-.4.53.53,0,0,1,.43-.16.51.51,0,0,1,.42.16.57.57,0,0,1,.15.4.56.56,0,0,1-.15.39.54.54,0,0,1-.42.15.56.56,0,0,1-.43-.15A.6.6,0,0,1,128.09,6.83Z"/><path class="cls-1" d="M132.22,11a3.65,3.65,0,0,1,.17-1.12,3,3,0,0,1,.5-.9,2.35,2.35,0,0,1,.8-.59,2.38,2.38,0,0,1,1.05-.22,2.42,2.42,0,0,1,1.06.22,2.35,2.35,0,0,1,.8.59,3,3,0,0,1,.5.9,3.65,3.65,0,0,1,.17,1.12v.11a3.59,3.59,0,0,1-.17,1.11,2.91,2.91,0,0,1-.5.9,2.35,2.35,0,0,1-.8.59,2.38,2.38,0,0,1-1.05.22,2.42,2.42,0,0,1-1.06-.22,2.35,2.35,0,0,1-.8-.59,2.91,2.91,0,0,1-.5-.9,3.59,3.59,0,0,1-.17-1.11Zm.95.11a2.88,2.88,0,0,0,.1.78,2,2,0,0,0,.29.66,1.32,1.32,0,0,0,.5.44,1.49,1.49,0,0,0,1.38,0,1.37,1.37,0,0,0,.49-.44,2,2,0,0,0,.29-.66,2.88,2.88,0,0,0,.1-.78V11a2.88,2.88,0,0,0-.1-.78,1.81,1.81,0,0,0-.3-.66,1.63,1.63,0,0,0-.49-.45,1.57,1.57,0,0,0-1.38,0,1.76,1.76,0,0,0-.49.45,2,2,0,0,0-.29.66,2.88,2.88,0,0,0-.1.78Z"/><path class="cls-1" d="M139.65,8.29l.07.82a2.15,2.15,0,0,1,.74-.67,2,2,0,0,1,1-.25,2.47,2.47,0,0,1,.79.12,1.46,1.46,0,0,1,.61.39,1.66,1.66,0,0,1,.39.66,3.05,3.05,0,0,1,.13,1v3.53h-1V10.34a1.93,1.93,0,0,0-.08-.63.88.88,0,0,0-.24-.41,1,1,0,0,0-.4-.24,2.06,2.06,0,0,0-.53-.07,1.48,1.48,0,0,0-.84.24,1.67,1.67,0,0,0-.58.63v4h-.95V8.29Z"/><path class="cls-1" d="M148.76,13.85a2.12,2.12,0,0,1-.09-.27c0-.11,0-.22,0-.34a1.69,1.69,0,0,1-.32.27,2.5,2.5,0,0,1-.39.23,2.16,2.16,0,0,1-.45.15,2.12,2.12,0,0,1-.52.06,2.18,2.18,0,0,1-.79-.13,1.74,1.74,0,0,1-.61-.35,1.51,1.51,0,0,1-.39-.51,1.57,1.57,0,0,1-.13-.65,1.73,1.73,0,0,1,.18-.81,1.57,1.57,0,0,1,.52-.57,2.54,2.54,0,0,1,.8-.34,4.23,4.23,0,0,1,1-.11h1V10a1.06,1.06,0,0,0-.09-.45,1,1,0,0,0-.27-.34,1.08,1.08,0,0,0-.41-.22,1.82,1.82,0,0,0-.55-.08,2,2,0,0,0-.5.07,1.5,1.5,0,0,0-.38.19,1.05,1.05,0,0,0-.24.28.68.68,0,0,0-.08.34h-1a1.35,1.35,0,0,1,.16-.6,1.62,1.62,0,0,1,.43-.52,2.34,2.34,0,0,1,.7-.38,2.65,2.65,0,0,1,.92-.14,3.08,3.08,0,0,1,.88.11,2.09,2.09,0,0,1,.7.35,1.65,1.65,0,0,1,.47.58,1.94,1.94,0,0,1,.17.82v2.58a4,4,0,0,0,.05.59,2.35,2.35,0,0,0,.14.54v.09Zm-1.68-.73a1.72,1.72,0,0,0,.52-.07,2,2,0,0,0,.44-.19,1.56,1.56,0,0,0,.34-.27,1.31,1.31,0,0,0,.23-.31V11.15h-.88a2.73,2.73,0,0,0-1.3.25.81.81,0,0,0-.46.77.92.92,0,0,0,.07.38.63.63,0,0,0,.21.3.85.85,0,0,0,.35.2A1.43,1.43,0,0,0,147.08,13.12Z"/><path class="cls-1" d="M151.57,6h2.84V13h1.82v.82h-4.66V13h1.89V6.78h-1.89Z"/></g></g></svg>